<svg xmlns="http://www.w3.org/2000/svg" viewBox="0 0 120 120" width="120" height="120">
  <defs>
    <linearGradient id="logoGradient" x1="0%" y1="0%" x2="100%" y2="100%">
      <stop offset="0%" style="stop-color:#6366f1;stop-opacity:1" />
      <stop offset="25%" style="stop-color:#8b5cf6;stop-opacity:1" />
      <stop offset="50%" style="stop-color:#06b6d4;stop-opacity:1" />
      <stop offset="75%" style="stop-color:#10b981;stop-opacity:1" />
      <stop offset="100%" style="stop-color:#f59e0b;stop-opacity:1" />
    </linearGradient>
    <linearGradient id="textGradient" x1="0%" y1="0%" x2="100%" y2="0%">
      <stop offset="0%" style="stop-color:#1f2937;stop-opacity:1" />
      <stop offset="100%" style="stop-color:#6b7280;stop-opacity:1" />
    </linearGradient>
    <filter id="logoGlow">
      <feGaussianBlur stdDeviation="3" result="coloredBlur"/>
      <feMerge> 
        <feMergeNode in="coloredBlur"/>
        <feMergeNode in="SourceGraphic"/>
      </feMerge>
    </filter>
    <filter id="innerShadow">
      <feOffset dx="0" dy="1"/>
      <feGaussianBlur stdDeviation="1" result="offset-blur"/>
      <feFlood flood-color="#000000" flood-opacity="0.1"/>
      <feComposite in2="offset-blur" operator="in"/>
      <feMerge>
        <feMergeNode/>
        <feMergeNode in="SourceGraphic"/>
      </feMerge>
    </filter>
  </defs>
  
  <!-- Outer pulsating ring -->
  <circle cx="60" cy="60" r="55" fill="none" stroke="url(#logoGradient)" stroke-width="2" opacity="0.3">
    <animate attributeName="r" values="55;58;55" dur="2s" repeatCount="indefinite"/>
    <animate attributeName="opacity" values="0.3;0.6;0.3" dur="2s" repeatCount="indefinite"/>
  </circle>
  
  <!-- Background circle with gradient -->
  <circle cx="60" cy="60" r="45" fill="url(#logoGradient)" filter="url(#logoGlow)" opacity="0.95">
    <animate attributeName="r" values="45;47;45" dur="3s" repeatCount="indefinite"/>
  </circle>
  
  <!-- Inner highlight circle -->
  <circle cx="60" cy="60" r="42" fill="none" stroke="rgba(255,255,255,0.2)" stroke-width="1"/>
  
  <!-- Creative B shape - more sophisticated -->
  <g transform="translate(60,60)">
    <path d="M -18 -24 
             L -18 24
             L 8 24
             C 16 24 20 20 20 14
             C 20 10 18 7 15 6
             C 18 5 20 2 20 -2
             C 20 -8 16 -12 8 -12
             L -18 -12
             Z
             
             M -10 -6
             L 6 -6
             C 10 -6 12 -4 12 -2
             C 12 1 10 3 6 3
             L -10 3
             Z
             
             M -10 9
             L 7 9  
             C 11 9 13 11 13 14
             C 13 17 11 18 7 18
             L -10 18
             Z" 
          fill="white" 
          stroke="rgba(255,255,255,0.4)" 
          stroke-width="0.8"
          filter="url(#innerShadow)">
      <animate attributeName="fill" values="white;rgba(255,255,255,0.9);white" dur="2.5s" repeatCount="indefinite"/>
    </path>
  </g>
        
  <!-- Decorative elements representing "blog/writing" -->
  <g opacity="0.7">
    <circle cx="95" cy="35" r="3" fill="rgba(255,255,255,0.8)">
      <animate attributeName="opacity" values="0.8;0.4;0.8" dur="1.5s" repeatCount="indefinite"/>
    </circle>
    <circle cx="100" cy="42" r="2" fill="rgba(255,255,255,0.6)">
      <animate attributeName="opacity" values="0.6;0.3;0.6" dur="2s" repeatCount="indefinite"/>
    </circle>
    <circle cx="97" cy="48" r="1.5" fill="rgba(255,255,255,0.4)">
      <animate attributeName="opacity" values="0.4;0.2;0.4" dur="2.5s" repeatCount="indefinite"/>
    </circle>
  </g>
  
  <!-- Subtle corner accent -->
  <path d="M 20 25 Q 25 20 30 25 T 35 30" fill="none" stroke="rgba(255,255,255,0.3)" stroke-width="1.5">
    <animate attributeName="opacity" values="0.3;0.6;0.3" dur="3s" repeatCount="indefinite"/>
  </path>
</svg>